PathFileType	4	(X/Y/Z)	C:/Users/opensim2020/Desktop/walking_exp_matlab/subject01_walking11_straight_04.trc																																																																																																																																		
DataRate	CameraRate	NumFrames	NumMarkers	Units	OrigDataRate	OrigDataStartFrame	OrigNumFrames																																																																																																																														
100	100	4	44	mm	100	4043	278																																																																																																																														
Frame#	Time	LFHD			RFHD			LBHD			RBHD			C7			T10			CLAV			STRN			RBAK			LSHO			LUPA			LELB			LFRM			LWRA			LWRB			LFIN			RSHO			RUPA			RELB			RFRM			RWRA			RWRB			RFIN			LASI			RASI			LPSI			RPSI			LTHI			LKNE			LTIB			LANK			LHEE			LTOE			RTHI			RKNE			RTIB			RANK			RHEE			RTOE			*39			*40			*41			*42			*43		
		X1	Y1	Z1	X2	Y2	Z2	X3	Y3	Z3	X4	Y4	Z4	X5	Y5	Z5	X6	Y6	Z6	X7	Y7	Z7	X8	Y8	Z8	X9	Y9	Z9	X10	Y10	Z10	X11	Y11	Z11	X12	Y12	Z12	X13	Y13	Z13	X14	Y14	Z14	X15	Y15	Z15	X16	Y16	Z16	X17	Y17	Z17	X18	Y18	Z18	X19	Y19	Z19	X20	Y20	Z20	X21	Y21	Z21	X22	Y22	Z22	X23	Y23	Z23	X24	Y24	Z24	X25	Y25	Z25	X26	Y26	Z26	X27	Y27	Z27	X28	Y28	Z28	X29	Y29	Z29	X30	Y30	Z30	X31	Y31	Z31	X32	Y32	Z32	X33	Y33	Z33	X34	Y34	Z34	X35	Y35	Z35	X36	Y36	Z36	X37	Y37	Z37	X38	Y38	Z38	X39	Y39	Z39	X40	Y40	Z40	X41	Y41	Z41	X42	Y42	Z42	X43	Y43	Z43	X44	Y44	Z44
																																																																																																																																					
174	1.73	193.01668	1659.67554	998.88788	235.36804	1662.60669	1105.52148	78.11889	1627.11304	1038.77954	120.35722	1630.13623	1151.86719	35.24748	1428.32336	1066.8739	-8.55634	1136.35474	1078.6781	175.85486	1355.6687	1067.63232	215.01315	1199.71631	1065.50562	-28.19779	1235.79883	1144.92676	117.56595	1389.65967	905.5285	70.26006	1204.72693	827.82605	40.95723	1057.32788	836.89349	60.94416	946.55664	809.55865	122.93438	820.16016	822.47119	66.34335	824.21143	802.09552	102.37923	747.06165	790.45331	107.12399	1387.76428	1216.08496	57.92885	1188.94434	1322.69678	73.20958	1063.14307	1331.14758	133.60172	957.18188	1361.68555	246.60217	871.95709	1343.43823	204.50876	858.34686	1381.04407	264.1684	795.75629	1379.18665	158.81473	926.65424	977.62463	149.7885	919.71368	1195.1239	-28.35255	943.65179	1020.53442	-33.03084	945.88153	1165.47595	195.78622	611.69745	900.30322	224.22736	482.84668	918.16064	229.56311	298.80325	899.85925	281.39911	80.19094	941.54559	251.24243	35.80111	996.63049	428.42685	86.71383	932.54205	59.45966	590.53241	1236.80383	47.50463	430.86127	1209.43481	-38.30807	276.45099	1211.56494	-111.38186	84.418	1165.7196	-168.7892	52.80267	1117.76294	21.90028	35.71721	1162.12817	221.60092	1697.38281	1085.64148	-1973.08618	1023.32764	3101.98315	-2012.50403	1022.01068	3140.60034	NaN	NaN	NaN	NaN	NaN	NaN
175	1.74	199.31403	1659.08252	996.86298	241.79742	1662.03552	1103.44019	84.48898	1626.40625	1036.90063	126.84682	1629.53271	1149.85034	41.87698	1427.5498	1064.50464	-1.76395	1135.5907	1076.91614	182.33968	1354.97546	1065.85144	221.78114	1199.22888	1063.99524	-21.62258	1235.13196	1143.15564	124.10842	1388.83105	903.65228	76.94723	1203.83362	826.14294	47.93039	1056.50696	835.23016	67.89499	945.56104	808.05505	129.91451	819.26813	821.14294	73.34348	823.30603	800.62439	109.47163	745.95184	789.2066	113.64323	1387.19275	1214.16516	64.75321	1188.45569	1320.84021	80.08093	1062.68335	1329.38525	140.39726	956.71149	1360.00793	253.39774	871.31348	1341.91968	211.31308	857.92926	1379.63257	270.80502	795.13275	1377.83362	166.63707	926.33545	976.58685	156.48456	919.23114	1194.21313	-21.15346	942.90918	1018.81635	-26.17636	945.245	1163.70349	203.3161	610.91803	899.98956	231.18158	482.26898	917.69519	236.83275	297.98483	899.09161	287.7999	79.16414	940.80804	257.37375	34.71775	995.69397	434.76123	85.71635	932.87512	65.14023	590.2981	1236.10596	52.51561	430.41794	1209.07751	-35.35538	277.04074	1211.18213	-110.51402	85.61095	1165.64233	-168.26576	54.57832	1117.8739	22.05256	35.76484	1162.2312	228.01886	1696.86719	1083.59998	-1973.10852	1023.48657	3101.91064	-2012.49573	1022.0069	3140.62964	NaN	NaN	NaN	NaN	NaN	NaN
176	1.75	205.68294	1658.48315	994.82166	248.23758	1661.47778	1101.40649	90.9479	1625.74304	1034.90332	133.30481	1628.89417	1147.8623	48.30173	1426.83679	1062.50452	5.07027	1134.84229	1075.08972	189.0674	1354.59717	1063.89575	228.54565	1198.73755	1062.3573	-14.96773	1234.47766	1141.2229	130.75473	1388.0332	901.70477	83.82057	1202.91418	824.29712	55.02299	1055.52112	833.43616	75.03896	944.62854	806.35925	137.07629	818.36316	819.71686	80.61374	822.32489	799.08142	116.75212	745.0379	787.79987	120.1221	1386.75635	1212.19775	71.5123	1187.95447	1318.85828	86.94172	1062.28784	1327.50781	147.047	956.2655	1358.28052	259.94098	870.68323	1340.37048	217.71243	857.4162	1377.89319	277.17957	794.59314	1376.2207	174.08124	925.7312	975.40851	163.29189	918.84363	1193.12866	-13.84998	942.20563	1017.1178	-19.33291	944.70996	1161.979	210.70186	610.41766	899.78003	238.34576	481.63458	917.45416	243.36957	296.95609	898.40356	292.96396	77.95449	940.22034	261.85529	33.77003	994.92615	439.8909	84.06464	933.47699	71.09058	590.05255	1235.39453	57.59831	430.22501	1208.58154	-32.01532	277.5932	1210.96252	-109.5463	87.11877	1165.87915	-167.6716	56.48972	1117.95972	22.18383	35.80004	1162.31348	234.37869	1696.22974	1081.54504	-1973.08899	1023.33807	3101.91846	-2012.573	1022.06055	3140.79468	NaN	NaN	NaN	NaN	NaN	NaN
177	1.76	211.89455	1658.08386	992.62354	254.58539	1660.94482	1099.22742	97.30556	1624.9895	1032.19226	139.7137	1628.23486	1145.76489	54.71955	1426.18701	1060.64624	11.95488	1134.07581	1073.18811	195.58057	1354.14148	1061.98901	235.47	1198.29907	1060.60754	-8.30013	1233.78406	1139.16772	137.40353	1387.26428	899.61786	90.86091	1201.95105	822.38092	62.05185	1054.51465	831.65564	82.34052	943.70441	804.664	144.50729	817.51825	818.24414	88.14113	821.34143	797.11487	124.19424	744.33868	786.18909	126.53979	1386.36438	1210.28162	78.15199	1187.58508	1316.91614	93.65997	1061.87549	1325.56372	153.59126	955.78632	1356.38269	266.3595	870.08014	1338.78442	224.06189	856.84698	1376.34412	283.36951	793.93768	1374.65417	181.70958	925.14935	974.14172	170.29399	918.42297	1191.9624	-6.41265	941.47321	1015.38922	-12.23253	944.13354	1160.18726	218.49319	609.80933	899.83423	245.64735	481.00229	917.28503	249.30965	295.77164	897.88568	296.83279	76.41273	939.78021	264.25378	33.16471	994.14331	443.61884	81.34353	933.9491	77.31651	589.73328	1234.38416	63.17889	429.75537	1207.99988	-28.38218	278.26093	1210.76147	-108.86343	88.80257	1166.25879	-166.94984	58.93385	1118.53162	22.32945	35.77313	1162.37732	240.71191	1695.69958	1079.43628	-1973.16565	1023.4353	3101.82324	-2012.51599	1022.11005	3140.75977	NaN	NaN	NaN	NaN	NaN	NaN
